<?xml version="1.0" encoding="iso-8859-1"?>
<!-- Generator: Adobe Illustrator 19.0.0, SVG Export Plug-In . SVG Version: 6.00 Build 0)  -->
<svg version="1.1" id="Capa_1" xmlns="http://www.w3.org/2000/svg" xmlns:xlink="http://www.w3.org/1999/xlink" x="0px" y="0px"
	 viewBox="0 0 512 512" style="enable-background:new 0 0 512 512;" xml:space="preserve">
<circle style="fill:#18FEFE;" cx="256" cy="256" r="256"/>
<path style="fill:#26C5D9;" d="M512,256c0-17.874-1.838-35.317-5.324-52.157L390.667,87.834L92.82,267.249l100.206,100.206
	l-71.693,56.712l82.51,82.51C220.683,510.162,238.127,512,256,512C397.385,512,512,397.385,512,256z"/>
<rect x="121.33" y="87.83" style="fill:#FFFFFF;" width="269.33" height="336.33"/>
<g>
	<rect x="255.95" y="87.83" style="fill:#E0E0E0;" width="134.71" height="336.33"/>
	<rect x="159.67" y="342.33" style="fill:#E0E0E0;" width="154.67" height="20"/>
</g>
<rect x="255.95" y="342.33" style="fill:#C0C0C0;" width="58.38" height="20"/>
<rect x="159.67" y="377.67" style="fill:#E0E0E0;" width="94" height="20"/>
<circle style="fill:#FEEA3B;" cx="156.78" cy="207.28" r="87.68"/>
<path style="fill:#FED500;" d="M156.778,119.603c-0.276,0-0.55,0.008-0.826,0.01V294.95c0.275,0.002,0.55,0.011,0.826,0.011
	c48.423,0,87.678-39.255,87.678-87.679C244.457,158.858,205.202,119.603,156.778,119.603z"/>
<circle style="fill:#FEC007;" cx="156.78" cy="207.28" r="66.14"/>
<path style="fill:#FEAA00;" d="M156.778,141.138c-0.277,0-0.55,0.018-0.826,0.021v132.245c0.276,0.003,0.549,0.021,0.826,0.021
	c36.53,0,66.143-29.614,66.143-66.144C222.922,170.751,193.308,141.138,156.778,141.138z"/>
<path style="fill:#FEF5E0;" d="M186.355,189.356v-3.563c0-11.208-9.082-20.328-20.271-20.404v-7.222h-18.611v7.222
	c-11.19,0.075-20.272,9.196-20.272,20.404v10.257c0,11.254,9.156,20.41,20.41,20.41h18.333c0.992,0,1.799,0.807,1.799,1.799v10.508
	c0,0.992-0.807,1.8-1.799,1.8h-18.333c-0.992,0-1.799-0.807-1.799-1.8v-2.331h-18.611v2.331c0,11.208,9.082,20.328,20.272,20.404
	v7.222h18.611v-7.222c11.189-0.076,20.271-9.196,20.271-20.404v-10.508c0-11.254-9.156-20.41-20.41-20.41h-18.333
	c-0.992,0-1.799-0.808-1.799-1.8v-10.257c0-0.992,0.807-1.8,1.799-1.8h18.333c0.992,0,1.799,0.807,1.799,1.8v3.563h18.611V189.356z"
	/>
<g>
	<path style="fill:#E0E0E0;" d="M186.355,189.356v-3.563c0-11.208-9.082-20.328-20.271-20.403v-7.222h-10.132v25.826h9.992
		c0.992,0,1.799,0.808,1.799,1.8v3.563h18.612V189.356z"/>
	<path style="fill:#E0E0E0;" d="M165.945,216.462c0.992,0,1.799,0.807,1.799,1.799v10.509c0,0.992-0.807,1.8-1.799,1.8h-9.992
		v25.826h10.132v-7.222c11.189-0.076,20.271-9.195,20.271-20.403v-10.509c0-11.254-9.156-20.41-20.41-20.41h-9.992v18.611
		L165.945,216.462L165.945,216.462z"/>
</g>
<g>
	
		<rect x="302.02" y="144.531" transform="matrix(-0.7071 -0.7071 0.7071 -0.7071 388.576 575.5242)" style="fill:#E54A19;" width="22.927" height="125.509"/>
	<circle style="fill:#E54A19;" cx="280.72" cy="174.52" r="19.722"/>
	<circle style="fill:#E54A19;" cx="346.24" cy="240.04" r="19.722"/>
</g>
<g>
</g>
<g>
</g>
<g>
</g>
<g>
</g>
<g>
</g>
<g>
</g>
<g>
</g>
<g>
</g>
<g>
</g>
<g>
</g>
<g>
</g>
<g>
</g>
<g>
</g>
<g>
</g>
<g>
</g>
</svg>
