<svg id="svg" version="1.1" xmlns="http://www.w3.org/2000/svg" xmlns:xlink="http://www.w3.org/1999/xlink" width="400" height="400" viewBox="0, 0, 400,400"><g id="svgg"><path id="path0" d="M199.600 60.714 C 199.050 61.084,198.510 61.499,198.400 61.638 C 198.290 61.776,196.580 63.115,194.600 64.613 C 192.620 66.111,189.225 68.701,187.056 70.369 C 184.887 72.036,182.300 73.987,181.307 74.704 C 180.314 75.421,177.949 77.229,176.051 78.722 C 174.153 80.215,172.211 81.698,171.735 82.018 C 170.920 82.567,165.751 86.535,158.213 92.400 C 156.375 93.830,154.470 95.270,153.980 95.600 C 153.491 95.930,151.682 97.280,149.962 98.600 C 148.242 99.920,144.936 102.440,142.617 104.200 C 140.297 105.960,138.160 107.608,137.866 107.862 C 137.573 108.116,135.728 109.542,133.767 111.030 C 131.805 112.519,128.425 115.101,126.256 116.769 C 124.087 118.436,121.500 120.387,120.507 121.104 C 119.514 121.821,117.149 123.629,115.251 125.122 C 113.353 126.615,111.411 128.098,110.935 128.418 C 110.120 128.967,104.951 132.935,97.413 138.800 C 95.575 140.230,93.671 141.670,93.183 142.000 C 92.695 142.330,90.888 143.725,89.167 145.100 C 87.447 146.475,85.941 147.600,85.820 147.600 C 85.699 147.600,85.285 147.883,84.900 148.230 C 84.515 148.576,82.670 150.018,80.800 151.433 C 78.930 152.849,77.152 154.214,76.849 154.468 C 76.545 154.721,74.925 155.950,73.249 157.199 C 71.572 158.449,69.458 160.085,68.552 160.836 C 67.646 161.586,66.503 162.470,66.012 162.800 C 65.521 163.130,63.653 164.523,61.860 165.894 C 60.067 167.266,58.240 168.658,57.800 168.986 C 47.821 176.435,43.450 180.862,41.206 185.787 C 39.783 188.910,40.469 190.562,43.928 192.343 C 45.798 193.306,45.814 193.307,62.486 193.496 C 76.903 193.659,79.242 193.769,79.686 194.304 C 80.100 194.802,80.220 209.143,80.304 267.663 L 80.408 340.403 127.304 340.302 L 174.200 340.200 174.200 323.400 C 174.200 308.451,174.127 306.490,173.539 305.600 C 173.176 305.050,172.753 303.970,172.600 303.200 C 172.447 302.430,172.093 301.437,171.813 300.994 C 171.534 300.551,171.169 299.568,171.002 298.810 C 170.836 298.052,170.387 296.795,170.005 296.016 C 169.623 295.237,168.566 293.093,167.655 291.252 C 166.745 289.411,166.000 287.760,166.000 287.583 C 166.000 287.121,162.742 282.330,161.644 281.176 C 161.132 280.639,160.292 279.543,159.777 278.740 C 157.411 275.052,146.686 267.200,144.016 267.200 C 143.665 267.200,143.023 266.953,142.589 266.652 C 142.155 266.351,140.672 266.024,139.294 265.926 C 136.640 265.738,135.499 265.141,136.285 264.355 C 137.042 263.598,140.086 263.521,142.400 264.200 C 143.610 264.555,145.438 265.001,146.461 265.192 C 147.485 265.383,148.835 265.799,149.461 266.116 C 150.088 266.434,151.235 266.808,152.011 266.948 C 153.422 267.203,155.100 268.027,160.206 270.971 C 162.466 272.274,167.498 276.772,169.412 279.200 C 171.777 282.200,174.800 287.482,174.800 288.613 C 174.800 289.324,176.465 292.392,176.853 292.397 C 176.993 292.399,177.234 291.213,177.389 289.763 C 177.544 288.313,177.903 286.558,178.187 285.863 C 178.470 285.168,178.831 283.702,178.989 282.605 C 179.148 281.508,179.509 280.158,179.791 279.605 C 180.074 279.052,180.437 277.790,180.598 276.800 C 180.759 275.810,181.055 274.796,181.256 274.546 C 181.457 274.297,181.872 273.217,182.178 272.146 C 183.007 269.249,183.984 266.352,184.588 265.000 C 184.882 264.340,185.500 262.945,185.961 261.900 C 186.423 260.855,187.160 259.223,187.600 258.274 C 188.598 256.120,188.608 254.524,187.643 251.428 C 187.227 250.093,186.492 247.650,186.010 246.000 C 185.528 244.350,184.894 242.370,184.601 241.600 C 184.026 240.089,183.015 237.047,182.341 234.800 C 182.110 234.030,181.682 233.130,181.391 232.800 C 181.100 232.470,180.741 231.712,180.592 231.116 C 180.443 230.520,180.081 229.833,179.786 229.589 C 179.492 229.345,179.138 228.630,179.000 228.000 C 178.862 227.370,178.490 226.641,178.174 226.379 C 177.858 226.117,177.600 225.729,177.600 225.518 C 177.600 225.307,176.942 224.024,176.139 222.667 C 175.335 221.310,174.475 219.840,174.229 219.400 C 170.076 212.002,158.283 199.374,153.200 196.884 C 152.650 196.615,150.760 195.504,149.000 194.415 C 147.240 193.326,145.617 192.428,145.394 192.418 C 145.171 192.408,144.361 192.064,143.594 191.653 C 142.827 191.243,141.570 190.770,140.800 190.602 C 140.030 190.435,139.045 190.051,138.611 189.749 C 137.695 189.112,136.000 189.015,136.000 189.600 C 136.000 189.820,136.257 190.000,136.571 190.000 C 136.886 190.000,137.390 190.247,137.691 190.548 C 137.992 190.850,138.770 191.392,139.420 191.753 C 145.037 194.880,150.253 198.780,154.833 203.279 C 158.491 206.871,164.213 213.211,165.450 215.042 C 166.029 215.899,167.176 217.410,167.997 218.400 C 168.819 219.390,170.101 221.251,170.846 222.536 C 171.591 223.820,172.593 225.530,173.073 226.336 C 174.287 228.374,176.400 232.691,176.400 233.134 C 176.400 233.337,176.670 233.726,177.000 234.000 C 177.330 234.274,177.600 234.779,177.600 235.123 C 177.600 235.466,177.973 236.518,178.429 237.461 C 179.514 239.701,179.351 241.021,178.000 240.940 C 174.802 240.746,168.886 239.887,168.217 239.520 C 167.786 239.283,166.526 238.857,165.417 238.573 C 162.766 237.894,159.826 236.892,157.600 235.908 C 153.632 234.154,150.627 232.605,149.640 231.803 C 149.068 231.339,147.580 230.293,146.332 229.479 C 143.923 227.908,139.934 224.461,138.604 222.800 C 138.163 222.250,136.902 220.789,135.801 219.554 C 134.701 218.319,133.151 216.249,132.358 214.954 C 129.670 210.564,127.600 206.862,127.600 206.444 C 127.600 206.215,127.351 205.436,127.046 204.714 C 124.740 199.246,123.288 194.195,122.817 190.000 C 122.582 187.910,122.217 185.480,122.005 184.600 C 121.247 181.456,121.484 177.691,122.460 177.381 C 123.802 176.955,136.369 177.597,138.600 178.205 C 139.700 178.505,141.860 178.939,143.400 179.169 C 147.461 179.776,152.674 180.999,153.278 181.488 C 153.565 181.720,154.548 182.033,155.463 182.184 C 156.378 182.334,157.458 182.709,157.863 183.016 C 158.268 183.323,158.886 183.580,159.236 183.587 C 159.882 183.600,163.288 185.272,166.200 187.006 C 167.080 187.530,168.242 188.158,168.782 188.401 C 174.187 190.833,183.068 200.712,186.940 208.600 C 189.774 214.374,190.332 215.705,190.628 217.400 C 190.781 218.280,191.131 219.450,191.405 220.000 C 192.659 222.518,193.775 238.213,192.992 242.309 C 192.304 245.902,192.240 247.600,192.792 247.600 C 193.008 247.600,193.298 247.150,193.436 246.600 C 193.574 246.050,193.817 245.600,193.976 245.600 C 194.135 245.600,194.518 245.105,194.827 244.500 C 197.261 239.733,209.785 225.340,215.366 220.894 C 222.712 215.041,224.081 214.000,224.428 214.000 C 224.637 214.000,225.705 213.370,226.800 212.600 C 227.895 211.830,228.949 211.200,229.142 211.200 C 229.335 211.200,229.921 210.870,230.446 210.466 C 231.441 209.700,234.400 208.113,236.800 207.058 C 237.570 206.719,239.224 205.983,240.475 205.421 C 241.727 204.860,242.996 204.400,243.295 204.400 C 243.595 204.400,244.016 204.224,244.231 204.009 C 244.745 203.495,248.816 202.081,251.637 201.437 C 252.867 201.156,254.115 200.776,254.412 200.593 C 254.708 200.410,255.861 200.033,256.975 199.754 C 258.089 199.476,259.720 198.976,260.600 198.642 C 261.480 198.308,262.942 198.027,263.850 198.018 C 264.757 198.008,266.256 197.733,267.181 197.407 C 268.106 197.080,270.333 196.705,272.131 196.571 C 273.929 196.438,275.976 196.154,276.680 195.940 C 279.493 195.085,280.242 196.902,279.589 203.000 C 279.377 204.980,279.014 208.850,278.782 211.600 C 278.550 214.350,278.115 217.500,277.816 218.600 C 277.516 219.700,277.144 221.410,276.989 222.400 C 276.834 223.390,276.524 224.548,276.301 224.973 C 276.077 225.398,275.661 226.658,275.376 227.773 C 274.185 232.431,269.631 242.365,268.192 243.444 C 267.867 243.688,267.600 244.005,267.600 244.148 C 267.600 244.574,265.306 247.635,263.574 249.519 C 263.230 249.894,261.842 251.573,260.489 253.250 C 259.137 254.928,257.078 257.080,255.915 258.033 C 253.087 260.350,252.735 260.643,251.787 261.481 C 251.027 262.153,248.840 263.616,247.000 264.684 C 246.560 264.940,244.809 265.971,243.109 266.975 C 241.409 267.979,239.891 268.800,239.735 268.800 C 239.580 268.800,238.676 269.160,237.726 269.600 C 232.039 272.235,230.338 272.903,227.000 273.809 C 225.900 274.107,224.280 274.624,223.400 274.958 C 222.520 275.292,221.435 275.573,220.989 275.582 C 220.543 275.592,219.780 275.878,219.295 276.219 C 218.809 276.559,217.104 276.990,215.506 277.176 C 213.907 277.362,212.084 277.717,211.454 277.965 C 209.897 278.577,203.540 278.945,202.841 278.464 C 202.243 278.053,202.706 275.700,204.193 271.600 C 205.471 268.077,211.534 255.618,213.100 253.298 C 213.595 252.565,214.000 251.854,214.000 251.719 C 214.000 251.101,221.007 241.122,223.080 238.788 C 224.356 237.352,226.336 235.012,227.481 233.588 C 228.626 232.165,230.876 229.789,232.481 228.309 C 234.086 226.829,236.480 224.616,237.800 223.392 C 239.120 222.168,241.805 220.139,243.766 218.883 C 247.368 216.577,247.423 215.186,243.843 216.947 C 243.159 217.283,241.520 218.024,240.200 218.594 C 238.880 219.164,237.530 219.796,237.200 219.998 C 236.870 220.201,235.295 221.036,233.700 221.854 C 232.105 222.672,230.800 223.490,230.800 223.671 C 230.800 223.852,230.603 224.000,230.363 224.000 C 230.123 224.000,229.448 224.370,228.863 224.821 C 228.278 225.273,227.080 226.186,226.200 226.849 C 224.153 228.393,219.807 232.625,218.000 234.837 C 217.230 235.779,215.635 237.641,214.455 238.975 C 213.276 240.309,211.692 242.300,210.937 243.400 C 210.181 244.500,208.964 246.220,208.233 247.222 C 207.502 248.224,206.769 249.484,206.604 250.022 C 206.440 250.560,206.078 251.270,205.800 251.600 C 205.522 251.930,205.162 252.650,205.000 253.200 C 204.838 253.750,204.478 254.470,204.200 254.800 C 203.922 255.130,203.561 255.850,203.398 256.400 C 203.235 256.950,202.913 257.636,202.681 257.925 C 202.262 258.448,201.152 261.331,200.341 264.000 C 200.107 264.770,199.679 265.850,199.390 266.400 C 198.627 267.850,197.612 271.041,197.036 273.800 C 196.760 275.120,196.349 276.560,196.121 277.000 C 195.893 277.440,195.583 278.773,195.432 279.963 C 195.280 281.152,194.920 282.592,194.632 283.163 C 194.344 283.733,193.982 285.639,193.829 287.398 C 193.675 289.157,193.292 291.587,192.978 292.798 C 190.892 300.849,190.269 336.876,192.163 339.940 C 192.375 340.283,208.762 340.400,256.824 340.400 L 321.200 340.400 321.200 267.889 C 321.200 204.408,321.274 195.272,321.794 194.530 C 322.380 193.694,322.615 193.680,338.552 193.541 C 353.266 193.413,354.786 193.337,355.490 192.700 C 355.915 192.315,356.542 192.000,356.884 192.000 C 359.097 192.000,360.028 188.422,358.583 185.474 C 356.105 180.422,351.947 175.777,345.698 171.079 C 344.762 170.376,342.152 168.395,339.898 166.679 C 337.644 164.962,335.279 163.162,334.642 162.679 C 334.006 162.195,333.151 161.485,332.742 161.100 C 332.334 160.715,331.901 160.400,331.780 160.400 C 331.659 160.400,330.084 159.227,328.280 157.793 C 326.476 156.359,324.685 154.964,324.301 154.693 C 323.533 154.152,319.851 151.331,311.600 144.962 C 308.630 142.669,305.840 140.527,305.400 140.202 C 302.812 138.287,297.756 134.210,297.506 133.838 C 297.344 133.597,297.209 123.639,297.206 111.708 C 297.201 93.994,297.096 89.740,296.634 88.508 C 296.323 87.679,295.963 86.249,295.834 85.332 C 295.405 82.267,292.458 78.507,288.677 76.200 L 285.400 74.200 279.200 74.200 L 273.000 74.200 269.723 76.200 C 265.942 78.507,262.995 82.267,262.566 85.332 C 262.437 86.249,262.077 87.679,261.766 88.508 C 261.358 89.595,261.200 91.947,261.200 96.932 C 261.200 106.603,261.584 106.394,254.169 100.776 C 250.886 98.289,247.210 95.470,246.000 94.513 C 244.790 93.555,243.440 92.504,243.000 92.178 C 240.774 90.524,233.442 84.939,230.800 82.885 C 229.150 81.602,227.350 80.270,226.800 79.925 C 226.250 79.580,225.306 78.835,224.702 78.270 C 224.098 77.705,223.338 77.093,223.013 76.911 C 222.688 76.729,220.752 75.276,218.711 73.682 C 208.061 65.363,206.278 64.000,206.049 63.998 C 205.912 63.997,205.163 63.412,204.385 62.698 C 203.080 61.501,200.983 59.972,200.714 60.021 C 200.651 60.033,200.150 60.344,199.600 60.714 M203.632 84.100 C 205.154 85.255,208.245 87.605,210.500 89.321 C 212.755 91.038,215.050 92.784,215.600 93.201 C 220.883 97.212,223.503 99.233,224.050 99.720 C 224.407 100.039,224.872 100.368,225.083 100.450 C 225.293 100.533,226.801 101.640,228.433 102.911 C 233.506 106.863,237.851 110.174,238.786 110.800 C 239.278 111.130,241.058 112.485,242.741 113.811 C 244.423 115.138,246.185 116.488,246.655 116.811 C 247.560 117.434,261.705 128.128,262.521 128.806 C 262.785 129.025,264.080 130.004,265.400 130.982 C 269.007 133.654,269.625 134.135,270.462 134.915 C 271.952 136.303,272.000 135.620,272.000 112.856 C 272.000 96.048,272.118 90.442,272.480 90.080 C 273.299 89.261,285.354 89.422,286.051 90.261 C 286.503 90.805,286.620 95.944,286.710 119.214 L 286.821 147.506 290.689 150.599 C 292.817 152.301,295.242 154.146,296.079 154.700 C 297.674 155.755,297.918 156.322,297.120 157.120 C 296.611 157.629,104.353 157.864,103.033 157.357 C 101.932 156.935,102.344 155.794,104.036 154.577 C 104.936 153.930,107.165 152.230,108.989 150.800 C 110.813 149.370,112.710 147.930,113.205 147.600 C 113.700 147.270,115.512 145.875,117.233 144.500 C 118.953 143.125,120.459 142.000,120.580 142.000 C 120.701 142.000,121.141 141.685,121.558 141.300 C 122.629 140.311,123.750 139.436,128.603 135.800 C 130.953 134.040,134.367 131.430,136.190 130.000 C 138.014 128.570,139.905 127.130,140.393 126.800 C 140.881 126.470,142.747 125.069,144.540 123.686 C 146.333 122.303,148.203 120.863,148.696 120.486 C 149.189 120.109,150.026 119.440,150.556 119.000 C 151.086 118.560,153.446 116.760,155.800 115.000 C 158.154 113.240,161.577 110.630,163.405 109.200 C 165.234 107.770,167.124 106.330,167.605 106.000 C 168.639 105.291,173.791 101.365,177.958 98.111 C 179.585 96.840,181.680 95.260,182.613 94.600 C 184.124 93.531,187.645 90.837,196.313 84.117 C 199.678 81.508,200.213 81.507,203.632 84.100 " stroke="none" fill="#94a43d" fill-rule="evenodd"></path><path id="path1" d="M195.980 62.021 C 193.681 63.793,191.350 65.583,190.800 65.998 C 190.250 66.414,187.865 68.250,185.500 70.077 C 180.162 74.201,176.589 76.925,173.798 79.000 C 170.029 81.801,158.648 90.492,157.344 91.566 C 156.653 92.135,155.663 92.917,155.144 93.306 C 154.625 93.694,152.733 95.134,150.940 96.506 C 149.147 97.877,147.275 99.270,146.779 99.600 C 146.283 99.930,144.839 101.049,143.571 102.087 C 142.303 103.125,140.555 104.475,139.688 105.087 C 135.748 107.865,127.600 114.199,127.600 114.484 C 127.600 114.658,127.411 114.800,127.180 114.800 C 126.949 114.800,125.353 115.925,123.633 117.300 C 121.912 118.675,120.094 120.070,119.591 120.400 C 119.088 120.730,117.639 121.849,116.371 122.887 C 115.103 123.925,113.355 125.275,112.488 125.887 C 108.548 128.665,100.400 134.999,100.400 135.284 C 100.400 135.458,100.211 135.600,99.980 135.600 C 99.749 135.600,98.153 136.725,96.433 138.100 C 94.712 139.475,92.898 140.870,92.400 141.200 C 91.902 141.530,90.124 142.884,88.448 144.208 C 86.771 145.533,85.012 146.883,84.538 147.208 C 82.536 148.582,73.767 155.330,73.400 155.780 C 73.180 156.050,72.805 156.344,72.567 156.435 C 72.153 156.593,70.993 157.477,61.984 164.500 C 59.797 166.205,57.908 167.600,57.786 167.600 C 57.461 167.600,52.623 171.653,52.467 172.056 C 52.393 172.245,52.138 172.400,51.900 172.400 C 51.662 172.400,51.182 172.668,50.834 172.995 C 50.485 173.322,49.308 174.357,48.218 175.295 C 45.757 177.412,44.872 178.309,43.600 179.974 C 43.050 180.694,42.376 181.521,42.102 181.812 C 41.827 182.102,41.415 182.758,41.184 183.270 C 40.954 183.781,40.506 184.650,40.189 185.200 C 38.043 188.920,41.368 193.968,45.994 194.014 C 46.767 194.022,48.570 194.285,50.000 194.600 C 51.938 195.026,55.789 195.175,65.126 195.186 C 72.968 195.195,77.942 195.355,78.426 195.614 C 79.187 196.021,79.200 197.254,79.200 268.134 C 79.200 323.683,79.310 340.350,79.680 340.720 C 80.438 341.478,174.360 341.410,175.398 340.651 C 176.098 340.139,176.121 339.820,175.737 336.027 C 175.454 333.235,175.453 328.451,175.732 320.829 C 176.104 310.722,176.080 309.576,175.470 308.292 C 175.102 307.515,174.800 306.544,174.800 306.134 C 174.800 305.724,174.466 304.761,174.059 303.994 C 173.651 303.227,173.186 301.889,173.026 301.020 C 172.865 300.152,172.479 299.077,172.167 298.631 C 171.855 298.186,171.600 297.570,171.600 297.263 C 171.600 296.956,170.790 295.028,169.800 292.979 C 168.810 290.930,168.000 289.084,168.000 288.876 C 168.000 288.668,167.730 288.274,167.400 288.000 C 167.070 287.726,166.800 287.176,166.800 286.778 C 166.800 286.009,161.192 278.618,158.316 275.597 C 155.694 272.842,152.044 269.934,149.700 268.733 C 149.205 268.479,148.800 268.120,148.800 267.936 C 148.800 267.405,151.169 267.545,152.338 268.144 C 152.922 268.444,154.611 269.299,156.091 270.044 C 160.153 272.091,161.058 272.603,161.715 273.228 C 162.046 273.543,162.891 274.250,163.594 274.800 C 165.309 276.143,167.600 278.412,167.600 278.767 C 167.600 278.925,168.240 279.762,169.022 280.627 C 169.804 281.492,170.704 282.740,171.022 283.400 C 171.340 284.060,172.140 285.586,172.800 286.792 C 173.460 287.998,174.001 289.258,174.002 289.592 C 174.004 289.926,174.297 290.740,174.654 291.400 C 175.011 292.060,175.525 293.320,175.796 294.200 C 176.485 296.439,177.327 296.264,177.716 293.800 C 177.890 292.700,178.218 291.080,178.445 290.200 C 178.672 289.320,179.108 287.187,179.413 285.460 C 179.718 283.733,180.148 282.104,180.367 281.840 C 180.586 281.576,180.888 280.559,181.038 279.580 C 181.188 278.601,181.541 277.344,181.821 276.786 C 182.102 276.229,182.457 275.059,182.611 274.186 C 182.764 273.314,183.111 272.240,183.382 271.800 C 183.652 271.360,184.002 270.460,184.160 269.800 C 184.503 268.363,186.106 264.256,186.973 262.593 C 187.315 261.937,187.596 261.151,187.598 260.847 C 187.599 260.543,187.980 259.679,188.445 258.927 C 189.496 257.226,189.568 253.421,188.599 250.794 C 188.234 249.807,187.755 248.104,187.533 247.009 C 187.312 245.914,186.952 244.685,186.735 244.278 C 186.517 243.871,186.097 242.697,185.802 241.669 C 185.068 239.116,184.027 236.045,183.406 234.600 C 182.122 231.613,179.244 225.896,177.409 222.684 C 176.304 220.750,175.130 218.660,174.800 218.040 C 172.683 214.059,164.032 204.077,159.000 199.809 C 154.717 196.176,144.310 190.000,142.472 190.000 C 142.211 190.000,141.325 189.640,140.504 189.200 C 139.684 188.760,138.313 188.400,137.460 188.400 C 136.606 188.400,135.033 188.089,133.964 187.710 C 132.511 187.194,131.906 187.134,131.565 187.475 C 130.921 188.119,131.471 188.800,132.636 188.800 C 133.180 188.800,133.728 189.067,133.853 189.394 C 133.979 189.721,135.368 190.717,136.941 191.608 C 142.778 194.912,145.289 196.565,148.902 199.482 C 150.617 200.867,152.190 202.000,152.396 202.000 C 152.603 202.000,152.965 202.360,153.200 202.800 C 153.435 203.240,153.892 203.600,154.214 203.600 C 154.536 203.600,154.800 203.864,154.800 204.186 C 154.800 204.508,155.160 204.965,155.600 205.200 C 156.040 205.435,156.400 205.852,156.400 206.125 C 156.400 206.399,156.715 206.899,157.100 207.238 C 157.485 207.577,158.970 209.181,160.400 210.804 C 161.830 212.427,163.315 214.080,163.700 214.477 C 164.085 214.875,164.400 215.302,164.400 215.427 C 164.400 215.619,166.853 218.827,168.493 220.779 C 168.978 221.357,169.796 222.739,170.991 225.000 C 171.340 225.660,171.980 226.740,172.414 227.400 C 172.847 228.060,173.476 229.230,173.811 230.000 C 174.145 230.770,174.596 231.670,174.812 232.000 C 175.028 232.330,175.303 232.870,175.422 233.200 C 175.542 233.530,175.976 234.440,176.387 235.222 C 176.798 236.005,177.259 237.310,177.412 238.122 L 177.689 239.600 175.717 239.600 C 174.633 239.600,172.858 239.345,171.773 239.034 C 170.688 238.722,169.010 238.342,168.044 238.189 C 167.078 238.036,165.548 237.575,164.644 237.164 C 163.740 236.754,162.578 236.414,162.062 236.409 C 161.546 236.404,160.646 236.142,160.062 235.827 C 159.478 235.512,157.920 234.782,156.600 234.205 C 153.123 232.685,151.269 231.653,148.917 229.928 C 147.771 229.087,146.686 228.400,146.506 228.400 C 146.325 228.400,145.892 228.085,145.544 227.700 C 145.195 227.315,144.325 226.550,143.611 226.000 C 141.230 224.167,135.337 217.673,134.057 215.472 C 133.522 214.552,132.750 213.428,132.342 212.974 C 131.934 212.520,131.600 212.011,131.600 211.844 C 131.600 211.677,130.880 210.307,130.000 208.800 C 129.120 207.293,128.400 205.752,128.400 205.374 C 128.400 204.997,128.067 203.948,127.660 203.044 C 126.472 200.406,125.570 197.599,124.967 194.666 C 124.658 193.162,124.285 191.737,124.138 191.500 C 123.672 190.745,122.815 178.625,123.201 178.239 C 123.415 178.025,126.043 178.147,129.681 178.541 C 133.046 178.906,137.150 179.317,138.800 179.455 C 140.450 179.593,142.398 179.948,143.129 180.245 C 143.861 180.541,145.661 180.898,147.129 181.038 C 148.598 181.178,150.179 181.529,150.642 181.817 C 151.104 182.106,152.184 182.465,153.042 182.616 C 153.899 182.766,154.963 183.116,155.406 183.392 C 155.849 183.669,156.839 184.026,157.606 184.186 C 159.030 184.482,161.740 185.745,164.600 187.444 C 165.480 187.967,166.830 188.686,167.600 189.042 C 168.370 189.398,169.090 189.805,169.200 189.945 C 169.310 190.085,170.300 190.825,171.400 191.588 C 174.037 193.419,174.211 193.559,175.929 195.241 C 179.210 198.454,182.728 202.844,183.909 205.200 C 184.184 205.750,184.875 207.010,185.444 208.000 C 186.012 208.990,186.666 210.340,186.895 211.000 C 187.125 211.660,187.538 212.470,187.812 212.800 C 188.086 213.130,188.442 214.030,188.602 214.800 C 188.762 215.570,189.053 216.400,189.250 216.645 C 189.446 216.890,189.794 218.150,190.022 219.445 C 190.251 220.740,190.721 222.520,191.066 223.400 C 191.579 224.706,191.712 227.204,191.791 237.000 C 191.901 250.718,191.832 249.600,192.566 249.600 C 193.054 249.600,194.425 247.547,196.828 243.218 C 197.174 242.596,197.768 241.775,198.149 241.394 C 198.530 241.013,199.846 239.329,201.074 237.651 C 202.303 235.973,204.858 232.978,206.754 230.995 C 208.649 229.012,211.016 226.492,212.013 225.395 C 213.010 224.298,214.480 222.908,215.278 222.306 C 216.077 221.704,217.019 220.924,217.370 220.573 C 217.971 219.971,219.455 218.871,223.520 216.010 C 224.466 215.345,225.389 214.800,225.571 214.800 C 225.753 214.800,226.135 214.520,226.419 214.177 C 226.704 213.834,227.491 213.289,228.168 212.966 C 229.751 212.211,230.960 211.497,231.712 210.873 C 232.438 210.270,236.073 208.404,236.525 208.402 C 236.812 208.400,238.845 207.532,242.600 205.806 C 243.260 205.503,244.250 205.131,244.800 204.980 C 245.350 204.829,246.070 204.481,246.400 204.206 C 246.730 203.931,247.741 203.594,248.647 203.457 C 249.553 203.320,250.813 202.937,251.447 202.606 C 252.081 202.276,253.050 202.000,253.600 201.994 C 254.150 201.987,255.385 201.626,256.344 201.191 C 257.303 200.756,258.433 200.400,258.857 200.400 C 259.280 200.400,260.295 200.111,261.113 199.758 C 261.931 199.405,264.090 198.957,265.911 198.762 C 267.732 198.568,270.083 198.128,271.135 197.783 C 272.303 197.401,274.050 197.205,275.624 197.279 L 278.200 197.400 278.076 204.400 C 278.005 208.466,277.727 212.322,277.415 213.600 C 277.119 214.810,276.751 217.060,276.597 218.600 C 276.444 220.140,276.063 221.929,275.752 222.577 C 275.440 223.224,275.077 224.484,274.945 225.377 C 274.813 226.269,274.470 227.379,274.182 227.842 C 273.894 228.304,273.532 229.384,273.377 230.242 C 273.223 231.099,272.863 232.250,272.578 232.800 C 272.293 233.350,271.477 235.060,270.765 236.600 C 268.997 240.423,265.178 246.182,262.400 249.213 C 262.070 249.573,261.530 250.287,261.200 250.800 C 260.103 252.505,252.792 259.633,251.150 260.600 C 250.776 260.820,249.636 261.585,248.615 262.300 C 247.595 263.015,246.653 263.600,246.521 263.600 C 246.390 263.600,245.364 264.209,244.241 264.954 C 242.443 266.147,240.128 267.308,235.200 269.489 C 234.430 269.830,233.080 270.432,232.200 270.828 C 230.265 271.698,227.238 272.700,224.800 273.276 C 223.810 273.511,222.645 273.949,222.211 274.251 C 221.777 274.553,221.019 274.800,220.526 274.800 C 220.033 274.800,218.768 275.134,217.715 275.543 C 216.662 275.952,214.439 276.397,212.777 276.531 C 211.114 276.666,209.094 277.052,208.289 277.388 C 204.628 278.918,202.781 277.943,204.189 275.222 C 204.512 274.596,204.895 273.348,205.038 272.450 C 205.182 271.551,205.547 270.610,205.850 270.359 C 206.152 270.107,206.400 269.711,206.400 269.477 C 206.400 268.735,211.925 257.293,212.436 256.978 C 212.603 256.875,212.853 256.272,212.992 255.637 C 213.131 255.002,213.595 254.166,214.023 253.779 C 214.450 253.393,214.800 252.926,214.800 252.742 C 214.800 252.559,215.520 251.372,216.399 250.104 C 217.279 248.837,217.999 247.584,217.999 247.320 C 218.000 247.056,218.231 246.696,218.514 246.520 C 218.797 246.344,219.678 245.210,220.472 244.000 C 221.266 242.790,222.419 241.260,223.033 240.600 C 224.034 239.525,226.392 236.606,228.303 234.077 C 229.250 232.822,234.392 227.695,236.275 226.128 C 237.115 225.428,238.612 224.120,239.601 223.223 C 240.591 222.325,242.210 221.117,243.200 220.539 C 246.697 218.498,251.200 215.435,251.200 215.099 C 251.200 214.912,251.740 214.570,252.400 214.340 C 253.060 214.110,253.600 213.771,253.600 213.588 C 253.600 212.920,251.983 212.763,250.905 213.326 C 250.297 213.643,249.080 214.088,248.200 214.315 C 245.479 215.017,240.434 217.011,238.800 218.031 C 238.470 218.237,237.930 218.509,237.600 218.635 C 235.823 219.316,231.955 221.434,229.400 223.124 C 225.418 225.759,223.122 227.902,215.907 235.721 C 210.781 241.276,206.830 246.771,204.778 251.200 C 204.523 251.750,204.152 252.470,203.954 252.800 C 203.756 253.130,203.396 253.850,203.154 254.400 C 202.912 254.950,202.552 255.670,202.354 256.000 C 202.156 256.330,201.795 257.050,201.552 257.600 C 201.308 258.150,200.769 259.340,200.354 260.244 C 199.940 261.148,199.600 262.237,199.600 262.664 C 199.600 263.091,199.424 263.616,199.209 263.831 C 198.787 264.253,197.400 268.009,196.711 270.600 C 196.477 271.480,195.951 273.236,195.542 274.502 C 195.134 275.767,194.800 277.351,194.800 278.021 C 194.800 278.692,194.526 279.770,194.190 280.419 C 193.855 281.067,193.414 282.913,193.210 284.521 C 193.006 286.129,192.651 287.941,192.420 288.547 C 192.190 289.154,191.895 291.214,191.765 293.125 C 191.636 295.036,191.235 297.590,190.875 298.800 C 189.783 302.466,189.874 339.826,190.976 340.632 C 192.111 341.462,320.862 341.489,321.550 340.660 C 321.876 340.267,322.025 320.437,322.099 267.760 L 322.200 195.400 336.000 195.176 C 353.535 194.892,356.777 194.346,359.486 191.222 C 360.544 190.001,360.718 186.772,359.811 185.200 C 359.494 184.650,359.064 183.828,358.855 183.374 C 358.318 182.204,356.511 179.580,355.430 178.400 C 352.664 175.381,345.574 169.200,344.877 169.200 C 344.636 169.200,344.296 168.958,344.120 168.661 C 343.823 168.161,335.923 162.021,332.318 159.487 C 331.447 158.875,329.697 157.525,328.429 156.487 C 327.161 155.449,325.712 154.330,325.209 154.000 C 324.706 153.670,322.888 152.275,321.167 150.900 C 319.447 149.525,317.851 148.400,317.620 148.400 C 317.389 148.400,317.200 148.258,317.200 148.084 C 317.200 147.813,308.415 140.944,305.838 139.200 C 305.350 138.870,303.394 137.361,301.491 135.848 L 298.030 133.095 297.915 110.048 L 297.800 87.000 296.844 84.300 C 296.318 82.815,295.728 81.600,295.534 81.600 C 295.339 81.600,295.000 81.195,294.780 80.700 C 293.626 78.106,290.489 75.439,286.400 73.575 C 285.058 72.963,273.342 72.963,272.000 73.575 C 267.911 75.439,264.774 78.106,263.620 80.700 C 263.400 81.195,263.061 81.600,262.866 81.600 C 261.585 81.600,260.642 87.027,260.486 95.300 C 260.312 104.538,260.397 104.342,257.600 102.000 C 256.549 101.120,255.498 100.400,255.264 100.400 C 255.031 100.400,254.696 100.158,254.520 99.861 C 254.344 99.565,251.950 97.633,249.200 95.568 C 246.450 93.503,244.020 91.672,243.800 91.499 C 243.580 91.326,241.477 89.703,239.126 87.892 C 236.775 86.081,232.402 82.710,229.409 80.400 C 226.416 78.090,223.660 75.979,223.284 75.709 C 222.496 75.144,216.233 70.302,209.174 64.800 C 199.994 57.645,201.302 57.920,195.980 62.021 M201.899 60.700 C 202.488 61.085,203.607 61.984,204.385 62.698 C 205.163 63.412,205.912 63.997,206.049 63.998 C 206.278 64.000,208.061 65.363,218.711 73.682 C 220.752 75.276,222.688 76.729,223.013 76.911 C 223.338 77.093,224.098 77.705,224.702 78.270 C 225.306 78.835,226.250 79.580,226.800 79.925 C 227.350 80.270,229.150 81.602,230.800 82.885 C 233.442 84.939,240.774 90.524,243.000 92.178 C 243.440 92.504,244.790 93.555,246.000 94.513 C 247.210 95.470,250.886 98.289,254.169 100.776 C 261.584 106.394,261.200 106.603,261.200 96.932 C 261.200 91.947,261.358 89.595,261.766 88.508 C 262.077 87.679,262.437 86.249,262.566 85.332 C 262.995 82.267,265.942 78.507,269.723 76.200 L 273.000 74.200 279.200 74.200 L 285.400 74.200 288.677 76.200 C 292.458 78.507,295.405 82.267,295.834 85.332 C 295.963 86.249,296.323 87.679,296.634 88.508 C 297.096 89.740,297.201 93.994,297.206 111.708 C 297.209 123.639,297.344 133.597,297.506 133.838 C 297.756 134.210,302.812 138.287,305.400 140.202 C 305.840 140.527,308.630 142.669,311.600 144.962 C 319.851 151.331,323.533 154.152,324.301 154.693 C 324.685 154.964,326.476 156.359,328.280 157.793 C 330.084 159.227,331.659 160.400,331.780 160.400 C 331.901 160.400,332.334 160.715,332.742 161.100 C 333.151 161.485,334.006 162.195,334.642 162.679 C 335.279 163.162,337.644 164.962,339.898 166.679 C 342.152 168.395,344.762 170.376,345.698 171.079 C 351.947 175.777,356.105 180.422,358.583 185.474 C 360.028 188.422,359.097 192.000,356.884 192.000 C 356.542 192.000,355.915 192.315,355.490 192.700 C 354.786 193.337,353.266 193.413,338.552 193.541 C 322.615 193.680,322.380 193.694,321.794 194.530 C 321.274 195.272,321.200 204.408,321.200 267.889 L 321.200 340.400 256.824 340.400 C 208.762 340.400,192.375 340.283,192.163 339.940 C 190.269 336.876,190.892 300.849,192.978 292.798 C 193.292 291.587,193.675 289.157,193.829 287.398 C 193.982 285.639,194.344 283.733,194.632 283.163 C 194.920 282.592,195.280 281.152,195.432 279.963 C 195.583 278.773,195.893 277.440,196.121 277.000 C 196.349 276.560,196.760 275.120,197.036 273.800 C 197.612 271.041,198.627 267.850,199.390 266.400 C 199.679 265.850,200.107 264.770,200.341 264.000 C 201.152 261.331,202.262 258.448,202.681 257.925 C 202.913 257.636,203.235 256.950,203.398 256.400 C 203.561 255.850,203.922 255.130,204.200 254.800 C 204.478 254.470,204.838 253.750,205.000 253.200 C 205.162 252.650,205.522 251.930,205.800 251.600 C 206.078 251.270,206.440 250.560,206.604 250.022 C 206.769 249.484,207.502 248.224,208.233 247.222 C 208.964 246.220,210.181 244.500,210.937 243.400 C 211.692 242.300,213.276 240.309,214.455 238.975 C 215.635 237.641,217.230 235.779,218.000 234.837 C 219.807 232.625,224.153 228.393,226.200 226.849 C 227.080 226.186,228.278 225.273,228.863 224.821 C 229.448 224.370,230.123 224.000,230.363 224.000 C 230.603 224.000,230.800 223.852,230.800 223.671 C 230.800 223.490,232.105 222.672,233.700 221.854 C 235.295 221.036,236.870 220.201,237.200 219.998 C 237.530 219.796,238.880 219.164,240.200 218.594 C 241.520 218.024,243.159 217.283,243.843 216.947 C 247.423 215.186,247.368 216.577,243.766 218.883 C 241.805 220.139,239.120 222.168,237.800 223.392 C 236.480 224.616,234.086 226.829,232.481 228.309 C 230.876 229.789,228.626 232.165,227.481 233.588 C 226.336 235.012,224.356 237.352,223.080 238.788 C 221.007 241.122,214.000 251.101,214.000 251.719 C 214.000 251.854,213.595 252.565,213.100 253.298 C 211.534 255.618,205.471 268.077,204.193 271.600 C 202.706 275.700,202.243 278.053,202.841 278.464 C 203.540 278.945,209.897 278.577,211.454 277.965 C 212.084 277.717,213.907 277.362,215.506 277.176 C 217.104 276.990,218.809 276.559,219.295 276.219 C 219.780 275.878,220.543 275.592,220.989 275.582 C 221.435 275.573,222.520 275.292,223.400 274.958 C 224.280 274.624,225.900 274.107,227.000 273.809 C 230.338 272.903,232.039 272.235,237.726 269.600 C 238.676 269.160,239.580 268.800,239.735 268.800 C 239.891 268.800,241.409 267.979,243.109 266.975 C 244.809 265.971,246.560 264.940,247.000 264.684 C 248.840 263.616,251.027 262.153,251.787 261.481 C 252.735 260.643,253.087 260.350,255.915 258.033 C 257.078 257.080,259.137 254.928,260.489 253.250 C 261.842 251.573,263.230 249.894,263.574 249.519 C 265.306 247.635,267.600 244.574,267.600 244.148 C 267.600 244.005,267.867 243.688,268.192 243.444 C 269.631 242.365,274.185 232.431,275.376 227.773 C 275.661 226.658,276.077 225.398,276.301 224.973 C 276.524 224.548,276.834 223.390,276.989 222.400 C 277.144 221.410,277.516 219.700,277.816 218.600 C 278.115 217.500,278.550 214.350,278.782 211.600 C 279.014 208.850,279.377 204.980,279.589 203.000 C 280.242 196.902,279.493 195.085,276.680 195.940 C 275.976 196.154,273.929 196.438,272.131 196.571 C 270.333 196.705,268.106 197.080,267.181 197.407 C 266.256 197.733,264.757 198.008,263.850 198.018 C 262.942 198.027,261.480 198.308,260.600 198.642 C 259.720 198.976,258.089 199.476,256.975 199.754 C 255.861 200.033,254.708 200.410,254.412 200.593 C 254.115 200.776,252.867 201.156,251.637 201.437 C 248.816 202.081,244.745 203.495,244.231 204.009 C 244.016 204.224,243.595 204.400,243.295 204.400 C 242.996 204.400,241.727 204.860,240.475 205.421 C 239.224 205.983,237.570 206.719,236.800 207.058 C 234.400 208.113,231.441 209.700,230.446 210.466 C 229.921 210.870,229.335 211.200,229.142 211.200 C 228.949 211.200,227.895 211.830,226.800 212.600 C 225.705 213.370,224.637 214.000,224.428 214.000 C 224.081 214.000,222.712 215.041,215.366 220.894 C 209.785 225.340,197.261 239.733,194.827 244.500 C 194.518 245.105,194.135 245.600,193.976 245.600 C 193.817 245.600,193.574 246.050,193.436 246.600 C 193.298 247.150,193.008 247.600,192.792 247.600 C 192.240 247.600,192.304 245.902,192.992 242.309 C 193.775 238.213,192.659 222.518,191.405 220.000 C 191.131 219.450,190.781 218.280,190.628 217.400 C 190.332 215.705,189.774 214.374,186.940 208.600 C 183.068 200.712,174.187 190.833,168.782 188.401 C 168.242 188.158,167.080 187.530,166.200 187.006 C 163.288 185.272,159.882 183.600,159.236 183.587 C 158.886 183.580,158.268 183.323,157.863 183.016 C 157.458 182.709,156.378 182.334,155.463 182.184 C 154.548 182.033,153.565 181.720,153.278 181.488 C 152.674 180.999,147.461 179.776,143.400 179.169 C 141.860 178.939,139.700 178.505,138.600 178.205 C 136.369 177.597,123.802 176.955,122.460 177.381 C 121.484 177.691,121.247 181.456,122.005 184.600 C 122.217 185.480,122.582 187.910,122.817 190.000 C 123.288 194.195,124.740 199.246,127.046 204.714 C 127.351 205.436,127.600 206.215,127.600 206.444 C 127.600 206.862,129.670 210.564,132.358 214.954 C 133.151 216.249,134.701 218.319,135.801 219.554 C 136.902 220.789,138.163 222.250,138.604 222.800 C 139.934 224.461,143.923 227.908,146.332 229.479 C 147.580 230.293,149.068 231.339,149.640 231.803 C 150.627 232.605,153.632 234.154,157.600 235.908 C 159.826 236.892,162.766 237.894,165.417 238.573 C 166.526 238.857,167.786 239.283,168.217 239.520 C 168.886 239.887,174.802 240.746,178.000 240.940 C 179.351 241.021,179.514 239.701,178.429 237.461 C 177.973 236.518,177.600 235.466,177.600 235.123 C 177.600 234.779,177.330 234.274,177.000 234.000 C 176.670 233.726,176.400 233.337,176.400 233.134 C 176.400 232.691,174.287 228.374,173.073 226.336 C 172.593 225.530,171.591 223.820,170.846 222.536 C 170.101 221.251,168.819 219.390,167.997 218.400 C 167.176 217.410,166.029 215.899,165.450 215.042 C 164.213 213.211,158.491 206.871,154.833 203.279 C 150.253 198.780,145.037 194.880,139.420 191.753 C 138.770 191.392,137.992 190.850,137.691 190.548 C 137.390 190.247,136.886 190.000,136.571 190.000 C 136.257 190.000,136.000 189.820,136.000 189.600 C 136.000 189.015,137.695 189.112,138.611 189.749 C 139.045 190.051,140.030 190.435,140.800 190.602 C 141.570 190.770,142.827 191.243,143.594 191.653 C 144.361 192.064,145.171 192.408,145.394 192.418 C 145.617 192.428,147.240 193.326,149.000 194.415 C 150.760 195.504,152.650 196.615,153.200 196.884 C 158.283 199.374,170.076 212.002,174.229 219.400 C 174.475 219.840,175.335 221.310,176.139 222.667 C 176.942 224.024,177.600 225.307,177.600 225.518 C 177.600 225.729,177.858 226.117,178.174 226.379 C 178.490 226.641,178.862 227.370,179.000 228.000 C 179.138 228.630,179.492 229.345,179.786 229.589 C 180.081 229.833,180.443 230.520,180.592 231.116 C 180.741 231.712,181.100 232.470,181.391 232.800 C 181.682 233.130,182.110 234.030,182.341 234.800 C 183.015 237.047,184.026 240.089,184.601 241.600 C 184.894 242.370,185.528 244.350,186.010 246.000 C 186.492 247.650,187.227 250.093,187.643 251.428 C 188.608 254.524,188.598 256.120,187.600 258.274 C 187.160 259.223,186.423 260.855,185.961 261.900 C 185.500 262.945,184.882 264.340,184.588 265.000 C 183.984 266.352,183.007 269.249,182.178 272.146 C 181.872 273.217,181.457 274.297,181.256 274.546 C 181.055 274.796,180.759 275.810,180.598 276.800 C 180.437 277.790,180.074 279.052,179.791 279.605 C 179.509 280.158,179.148 281.508,178.989 282.605 C 178.831 283.702,178.470 285.168,178.187 285.863 C 177.903 286.558,177.544 288.313,177.389 289.763 C 177.234 291.213,176.993 292.399,176.853 292.397 C 176.465 292.392,174.800 289.324,174.800 288.613 C 174.800 287.482,171.777 282.200,169.412 279.200 C 167.498 276.772,162.466 272.274,160.206 270.971 C 155.100 268.027,153.422 267.203,152.011 266.948 C 151.235 266.808,150.088 266.434,149.461 266.116 C 148.835 265.799,147.485 265.383,146.461 265.192 C 145.438 265.001,143.610 264.555,142.400 264.200 C 140.086 263.521,137.042 263.598,136.285 264.355 C 135.499 265.141,136.640 265.738,139.294 265.926 C 140.672 266.024,142.155 266.351,142.589 266.652 C 143.023 266.953,143.665 267.200,144.016 267.200 C 146.686 267.200,157.411 275.052,159.777 278.740 C 160.292 279.543,161.132 280.639,161.644 281.176 C 162.742 282.330,166.000 287.121,166.000 287.583 C 166.000 287.760,166.745 289.411,167.655 291.252 C 168.566 293.093,169.623 295.237,170.005 296.016 C 170.387 296.795,170.836 298.052,171.002 298.810 C 171.169 299.568,171.534 300.551,171.813 300.994 C 172.093 301.437,172.447 302.430,172.600 303.200 C 172.753 303.970,173.176 305.050,173.539 305.600 C 174.127 306.490,174.200 308.451,174.200 323.400 L 174.200 340.200 127.304 340.302 L 80.408 340.403 80.304 267.663 C 80.220 209.143,80.100 194.802,79.686 194.304 C 79.242 193.769,76.903 193.659,62.486 193.496 C 45.814 193.307,45.798 193.306,43.928 192.343 C 40.469 190.562,39.783 188.910,41.206 185.787 C 43.450 180.862,47.821 176.435,57.800 168.986 C 58.240 168.658,60.067 167.266,61.860 165.894 C 63.653 164.523,65.521 163.130,66.012 162.800 C 66.503 162.470,67.646 161.586,68.552 160.836 C 69.458 160.085,71.572 158.449,73.249 157.199 C 74.925 155.950,76.545 154.721,76.849 154.468 C 77.152 154.214,78.930 152.849,80.800 151.433 C 82.670 150.018,84.515 148.576,84.900 148.230 C 85.285 147.883,85.699 147.600,85.820 147.600 C 85.941 147.600,87.447 146.475,89.167 145.100 C 90.888 143.725,92.695 142.330,93.183 142.000 C 93.671 141.670,95.575 140.230,97.413 138.800 C 104.951 132.935,110.120 128.967,110.935 128.418 C 111.411 128.098,113.353 126.615,115.251 125.122 C 117.149 123.629,119.514 121.821,120.507 121.104 C 121.500 120.387,124.087 118.436,126.256 116.769 C 128.425 115.101,131.805 112.519,133.767 111.030 C 135.728 109.542,137.573 108.116,137.866 107.862 C 138.160 107.608,140.297 105.960,142.617 104.200 C 144.936 102.440,148.242 99.920,149.962 98.600 C 151.682 97.280,153.491 95.930,153.980 95.600 C 154.470 95.270,156.375 93.830,158.213 92.400 C 165.751 86.535,170.920 82.567,171.735 82.018 C 172.211 81.698,174.153 80.215,176.051 78.722 C 177.949 77.229,180.314 75.421,181.307 74.704 C 182.300 73.987,184.887 72.036,187.056 70.369 C 189.225 68.701,192.620 66.111,194.600 64.613 C 196.580 63.115,198.290 61.776,198.400 61.638 C 198.600 61.387,200.498 60.061,200.714 60.021 C 200.777 60.009,201.310 60.315,201.899 60.700 M196.313 84.117 C 187.645 90.837,184.124 93.531,182.613 94.600 C 181.680 95.260,179.585 96.840,177.958 98.111 C 173.791 101.365,168.639 105.291,167.605 106.000 C 167.124 106.330,165.234 107.770,163.405 109.200 C 161.577 110.630,158.154 113.240,155.800 115.000 C 153.446 116.760,151.086 118.560,150.556 119.000 C 150.026 119.440,149.189 120.109,148.696 120.486 C 148.203 120.863,146.333 122.303,144.540 123.686 C 142.747 125.069,140.881 126.470,140.393 126.800 C 139.905 127.130,138.014 128.570,136.190 130.000 C 134.367 131.430,130.953 134.040,128.603 135.800 C 123.750 139.436,122.629 140.311,121.558 141.300 C 121.141 141.685,120.701 142.000,120.580 142.000 C 120.459 142.000,118.953 143.125,117.233 144.500 C 115.512 145.875,113.700 147.270,113.205 147.600 C 112.710 147.930,110.813 149.370,108.989 150.800 C 107.165 152.230,104.936 153.930,104.036 154.577 C 102.344 155.794,101.932 156.935,103.033 157.357 C 104.353 157.864,296.611 157.629,297.120 157.120 C 297.918 156.322,297.674 155.755,296.079 154.700 C 295.242 154.146,292.817 152.301,290.689 150.599 L 286.821 147.506 286.710 119.214 C 286.620 95.944,286.503 90.805,286.051 90.261 C 285.354 89.422,273.299 89.261,272.480 90.080 C 272.118 90.442,272.000 96.048,272.000 112.856 C 272.000 135.620,271.952 136.303,270.462 134.915 C 269.625 134.135,269.007 133.654,265.400 130.982 C 264.080 130.004,262.785 129.025,262.521 128.806 C 261.705 128.128,247.560 117.434,246.655 116.811 C 246.185 116.488,244.423 115.138,242.741 113.811 C 241.058 112.485,239.278 111.130,238.786 110.800 C 237.851 110.174,233.506 106.863,228.433 102.911 C 226.801 101.640,225.293 100.533,225.083 100.450 C 224.872 100.368,224.407 100.039,224.050 99.720 C 223.503 99.233,220.883 97.212,215.600 93.201 C 215.050 92.784,212.755 91.038,210.500 89.321 C 199.088 80.634,200.254 81.062,196.313 84.117 M204.906 86.500 C 207.237 88.315,211.066 91.240,213.415 93.000 C 215.763 94.760,219.098 97.325,220.825 98.700 C 222.552 100.075,224.086 101.200,224.235 101.200 C 224.384 101.200,225.898 102.325,227.599 103.700 C 229.300 105.075,231.094 106.470,231.586 106.800 C 232.078 107.130,233.893 108.480,235.619 109.800 C 237.345 111.120,240.209 113.280,241.983 114.600 C 245.883 117.502,246.378 117.881,249.273 120.189 C 250.523 121.185,251.693 122.003,251.873 122.007 C 252.053 122.011,252.648 122.485,253.195 123.062 C 254.055 123.968,255.530 125.065,257.951 126.600 C 258.298 126.820,258.766 127.206,258.991 127.459 C 259.732 128.290,270.737 136.400,271.124 136.400 C 271.332 136.400,271.731 136.676,272.011 137.013 C 273.322 138.593,273.398 137.506,273.600 114.367 L 273.800 91.400 278.904 91.288 C 281.973 91.221,284.325 91.346,284.804 91.602 C 285.587 92.021,285.600 92.483,285.600 119.970 L 285.600 147.913 289.384 150.956 C 291.465 152.630,293.256 154.000,293.364 154.000 C 293.663 154.000,295.600 155.858,295.600 156.146 C 295.600 156.286,252.490 156.400,199.800 156.400 C 136.200 156.400,104.000 156.266,104.000 156.000 C 104.000 155.780,104.151 155.600,104.337 155.600 C 104.522 155.600,105.107 155.235,105.637 154.790 C 106.166 154.344,108.130 152.820,110.000 151.403 C 111.870 149.987,113.685 148.551,114.034 148.214 C 114.382 147.876,114.813 147.600,114.990 147.600 C 115.168 147.600,116.233 146.824,117.357 145.876 C 118.481 144.928,121.290 142.737,123.600 141.008 C 128.418 137.401,131.918 134.669,132.834 133.801 C 133.182 133.470,133.596 133.200,133.753 133.200 C 133.911 133.200,135.447 132.075,137.167 130.700 C 138.888 129.325,140.700 127.930,141.195 127.600 C 141.690 127.270,143.593 125.830,145.424 124.400 C 147.255 122.970,150.666 120.360,153.004 118.600 C 155.342 116.840,159.178 113.914,161.527 112.099 C 163.877 110.283,166.160 108.525,166.600 108.193 C 167.040 107.861,168.867 106.466,170.660 105.094 C 172.453 103.723,174.325 102.330,174.821 102.000 C 175.317 101.670,176.761 100.551,178.029 99.513 C 179.297 98.475,181.047 97.125,181.919 96.513 C 184.425 94.753,196.463 85.587,197.914 84.334 C 199.795 82.711,200.199 82.836,204.906 86.500 M190.800 251.800 C 190.800 252.130,190.980 252.400,191.200 252.400 C 191.420 252.400,191.600 252.130,191.600 251.800 C 191.600 251.470,191.420 251.200,191.200 251.200 C 190.980 251.200,190.800 251.470,190.800 251.800 M147.200 266.400 C 147.200 266.620,146.750 266.800,146.200 266.800 C 145.650 266.800,145.200 266.620,145.200 266.400 C 145.200 266.180,145.650 266.000,146.200 266.000 C 146.750 266.000,147.200 266.180,147.200 266.400 " stroke="none" fill="#cfd2a4" fill-rule="evenodd"></path></g></svg>